
<svg width="1080" height="1080" viewBox="0 0 1080 1080" fill="none" xmlns="http://www.w3.org/2000/svg">
<rect width="1080" height="1080" rx="180" fill="#10B981"/>
<path d="M495.391 703.098V862.049C495.391 896.033 487.558 922.285 472.08 940.805C459.959 955.369 444.295 961.842 424.528 964H357.954C338.001 961.842 322.337 955.369 310.029 940.805C294.364 922.285 286.532 896.033 286.532 862.049V703.278H357.395V861.869C357.395 863.307 357.395 864.926 357.581 866.364C357.581 867.083 357.768 867.803 357.768 868.522C357.768 869.241 357.768 869.96 357.954 870.68C358.141 871.758 358.327 872.837 358.514 873.736C358.514 874.096 358.514 874.456 358.7 874.815C358.887 875.534 359.26 876.254 359.446 876.973C359.633 877.512 359.819 878.232 360.006 878.771C360.192 879.131 360.192 879.31 360.379 879.67C362.243 884.345 365.041 888.481 368.77 891.717C374.365 896.752 390.961 897.471 390.961 897.471C390.961 897.471 407.372 896.752 413.153 891.537C416.696 888.121 419.493 884.165 421.544 879.49C421.731 879.131 421.731 878.951 421.917 878.591C422.104 878.052 422.29 877.332 422.477 876.793C422.85 876.074 423.036 875.355 423.223 874.635C423.223 874.276 423.409 873.916 423.409 873.557C423.596 872.478 423.782 871.579 423.968 870.5C423.968 869.781 424.155 869.061 424.155 868.342C424.155 867.623 424.341 866.904 424.341 866.184C424.528 864.746 424.528 863.307 424.528 861.689V703.278L495.391 703.098Z" fill="#1B1B1B"/>
<path d="M945.554 847.664L864.062 728.092L942.197 601.687C944.435 598.091 941.638 593.595 937.349 593.595H871.521C869.47 593.595 867.605 594.674 866.486 596.472L826.952 669.654L781.824 596.292C780.892 594.674 779.027 593.595 776.976 593.595H711.707C707.232 593.595 704.621 598.45 707.045 601.867L786.859 718.922L702.57 845.866C700.145 849.462 702.943 854.137 707.232 854.137H769.703C769.703 854.137 773.432 853.238 774.551 851.62L823.596 775.381L870.775 851.62C871.708 853.238 875.624 855.935 875.624 855.935H940.706C945.368 855.935 947.978 851.081 945.554 847.664Z" fill="#1B1B1B"/>
<path d="M493.281 593.684C473.328 595.842 457.663 602.315 445.355 616.879C429.691 635.399 421.859 661.651 421.859 695.635V854.406H492.722V695.815C492.722 694.197 492.722 692.758 492.908 691.32C492.908 690.601 493.094 689.881 493.094 689.162C493.094 688.443 493.281 687.724 493.281 687.004C493.467 685.926 493.654 685.026 493.84 683.948C493.84 683.588 494.027 683.228 494.027 682.869C494.213 682.15 494.4 681.43 494.773 680.711C494.959 680.172 495.146 679.452 495.332 678.913C495.519 678.553 495.519 678.374 495.705 678.014C497.57 673.339 500.367 669.383 503.91 665.967C511.183 659.134 521.44 655.718 534.68 655.538C547.92 655.718 557.99 659.134 565.449 665.967C568.992 669.203 571.789 673.339 573.654 678.014C573.841 678.374 573.841 678.553 574.027 678.913C574.214 679.452 574.4 680.172 574.587 680.711C574.773 681.43 575.146 682.15 575.332 682.869C575.519 683.228 575.519 683.588 575.519 683.948C575.705 684.847 575.892 685.926 576.078 687.004C576.265 687.724 576.265 688.443 576.265 689.162C576.265 689.881 576.451 690.601 576.451 691.32C576.638 692.758 576.638 694.376 576.638 695.815V850.81C576.638 852.787 578.316 854.406 580.367 854.406H645.636C647.687 854.406 649.365 852.787 649.365 850.81V695.635C649.365 661.651 641.533 635.399 625.869 616.879C613.561 602.315 597.897 595.842 577.943 593.684H493.281Z" fill="#1B1B1B"/>
<path d="M284.049 854.406V599.078C284.049 596.021 286.473 593.684 289.643 593.684H349.317C352.487 593.684 354.911 596.021 354.911 599.078V854.406H284.049ZM284.049 552.328V494.79C284.049 491.733 286.473 489.395 289.643 489.395H349.317C352.487 489.395 354.911 491.733 354.911 494.79V552.328C354.911 555.385 352.487 557.722 349.317 557.722H289.643C286.473 557.722 284.049 555.385 284.049 552.328Z" fill="#1B1B1B"/>
<path d="M198.268 489.395C201.438 489.395 203.863 491.733 203.863 494.79V768.098C203.863 774.211 205.914 779.246 209.83 782.662C213.746 786.259 232.208 787.877 239.667 787.877H246.753C249.923 787.877 252.348 790.214 252.348 793.271V849.012C252.348 852.068 249.923 854.406 246.753 854.406H201.252C179.62 854.406 162.65 848.292 150.716 836.245C138.781 824.198 133 807.116 133 785.18V494.79C133 491.733 135.424 489.395 138.594 489.395H198.268Z" fill="#1B1B1B"/>
<path d="M683.774 259.048L629.321 124.192C628.575 122.035 626.338 120.776 624.1 120.776H568.156C564.239 120.776 561.442 124.552 562.934 128.148L656.174 359.741C656.734 361 656.734 362.258 656.174 363.517L642.375 401.996C639.578 409.548 635.662 414.942 630.44 417.999C625.219 421.235 619.065 422.854 611.606 422.854H601.536C598.365 422.854 595.941 425.191 595.941 428.248V483.988C595.941 487.045 598.365 489.383 601.536 489.383H611.792C633.051 489.383 649.834 485.966 661.769 478.954C673.704 471.941 683.214 459.534 689.927 441.554L807.783 126.17C809.089 122.574 806.478 118.978 802.562 118.978H747.55C745.126 118.978 743.074 120.416 742.328 122.574L694.216 258.869C692.725 263.723 685.825 263.723 683.774 259.048Z" fill="white"/>
<path d="M501.023 146.848C484.985 127.069 462.235 117 432.771 117C416.174 117 401.069 121.495 387.456 130.486C374.402 138.937 363.773 150.984 355.381 166.267C352.024 159.075 348.108 152.602 343.633 146.848C327.782 127.069 305.404 117 276.313 117C259.716 117 245.544 121.315 233.609 129.766C224.285 136.419 216.266 145.41 209.553 156.378V124.372C209.553 121.315 207.129 118.978 203.959 118.978H144.658C141.488 118.978 139.063 121.315 139.063 124.372V374.305C139.063 377.362 141.488 379.7 144.658 379.7H204.332C207.502 379.7 209.926 377.362 209.926 374.305V222.547C210.113 209.601 213.656 199.712 220.929 192.519C228.201 185.327 238.271 181.911 251.511 181.911C265.87 181.911 277.059 186.046 284.705 194.317C292.351 202.589 296.267 214.456 295.707 229.56V376.104C295.707 379.16 298.132 381.498 301.302 381.498H362.84C366.01 381.498 368.435 379.16 368.435 376.104V228.841V229.02C368.435 214.456 372.164 203.128 379.437 195.217C386.896 187.305 397.153 183.349 410.952 183.349C424.938 183.349 435.381 187.485 443.027 195.756C450.673 204.027 454.402 215.894 454.402 230.998V376.104C454.402 379.16 456.827 381.498 459.997 381.498H519.671C522.841 381.498 525.265 379.16 525.265 376.104V230.639C525.265 194.857 517.246 166.807 501.023 146.848Z" fill="white"/>
</svg>
