<?xml version="1.0" encoding="utf-8"?>
<svg viewBox="0 0 500 164" xmlns="http://www.w3.org/2000/svg">
  <g id="linx" transform="matrix(1, 0, 0, 1, 52.91368865966797, 31.10927963256836)"/>
  <g id="my" transform="matrix(1, 0, 0, 1, 52.91368865966797, 31.10927963256836)">
    <g style="" transform="matrix(0.60579, 0, 0, 0.60579, -49.03294, -30)">
      <path id="in_x5F_connector" d="M572 118.9v88.4c0 18.9-4.2 33.5-12.5 43.8-6.5 8.1-14.9 11.7-25.5 12.9h-35.7c-10.7-1.2-19.1-4.8-25.7-12.9-8.4-10.3-12.6-24.9-12.6-43.8V119h38v88.2c0 .8 0 1.7.1 2.5 0 .4.1.8.1 1.2s0 .8.1 1.2c.1.6.2 1.2.3 1.7 0 .2 0 .4.1.6.1.4.3.8.4 1.2.1.3.2.7.3 1 .1.2.1.3.2.5 1 2.6 2.5 4.9 4.5 6.7 3 2.8 11.9 3.2 11.9 3.2s8.8-.4 11.9-3.3c1.9-1.9 3.4-4.1 4.5-6.7.1-.2.1-.3.2-.5.1-.3.2-.7.3-1 .2-.4.3-.8.4-1.2 0-.2.1-.4.1-.6.1-.6.2-1.1.3-1.7 0-.4.1-.8.1-1.2s.1-.8.1-1.2c.1-.8.1-1.6.1-2.5V119l38-.1z" class="st0" style="fill: rgb(32, 32, 32);"/>
      <path id="x" d="m813.4 199.3-43.7-66.5 41.9-70.3c1.2-2-.3-4.5-2.6-4.5h-35.3c-1.1 0-2.1.6-2.7 1.6l-21.2 40.7-24.2-40.8c-.5-.9-1.5-1.5-2.6-1.5h-35c-2.4 0-3.8 2.7-2.5 4.6l42.8 65.1-45.2 70.6c-1.3 2 .2 4.6 2.5 4.6h33.5s2-.5 2.6-1.4l26.3-42.4 25.3 42.4c.5.9 2.6 2.4 2.6 2.4h34.9c2.5 0 3.9-2.7 2.6-4.6z" class="st0" style="fill: rgb(32, 32, 32);"/>
      <path id="n" d="M572.2 58c-10.7 1.2-19.1 4.8-25.7 12.9-8.4 10.3-12.6 24.9-12.6 43.8V203h38v-88.2c0-.9 0-1.7.1-2.5 0-.4.1-.8.1-1.2 0-.4.1-.8.1-1.2.1-.6.2-1.1.3-1.7 0-.2.1-.4.1-.6.1-.4.2-.8.4-1.2.1-.3.2-.7.3-1 .1-.2.1-.3.2-.5 1-2.6 2.5-4.8 4.4-6.7 3.9-3.8 9.4-5.7 16.5-5.8 7.1.1 12.5 2 16.5 5.8 1.9 1.8 3.4 4.1 4.4 6.7.1.2.1.3.2.5.1.3.2.7.3 1 .1.4.3.8.4 1.2.1.2.1.4.1.6.1.5.2 1.1.3 1.7.1.4.1.8.1 1.2 0 .4.1.8.1 1.2.1.8.1 1.7.1 2.5V201c0 1.1.9 2 2 2h35c1.1 0 2-.9 2-2v-86.3c0-18.9-4.2-33.5-12.6-43.8-6.6-8.1-15-11.7-25.7-12.9h-45.4z" class="st0" style="fill: rgb(32, 32, 32);"/>
      <path id="i" d="M460 203V61c0-1.7 1.3-3 3-3h32c1.7 0 3 1.3 3 3v142h-38zm0-168V3c0-1.7 1.3-3 3-3h32c1.7 0 3 1.3 3 3v32c0 1.7-1.3 3-3 3h-32c-1.7 0-3-1.3-3-3z" class="st0" style="fill: rgb(32, 32, 32);"/>
      <path id="l" d="M414 0c1.7 0 3 1.3 3 3v152c0 3.4 1.1 6.2 3.2 8.1 2.1 2 12 2.9 16 2.9h3.8c1.7 0 3 1.3 3 3v31c0 1.7-1.3 3-3 3h-24.4c-11.6 0-20.7-3.4-27.1-10.1-6.4-6.7-9.5-16.2-9.5-28.4V3c0-1.7 1.3-3 3-3h32z" class="st0" style="fill: rgb(32, 32, 32);"/>
      <path id="y" d="m292.1 135.9-29.2-75c-.4-1.2-1.6-1.9-2.8-1.9h-30c-2.1 0-3.6 2.1-2.8 4.1l50 128.8c.3.7.3 1.4 0 2.1l-7.4 21.4c-1.5 4.2-3.6 7.2-6.4 8.9-2.8 1.8-6.1 2.7-10.1 2.7H248c-1.7 0-3 1.3-3 3v31c0 1.7 1.3 3 3 3h5.5c11.4 0 20.4-1.9 26.8-5.8s11.5-10.8 15.1-20.8L358.6 62c.7-2-.7-4-2.8-4h-29.5c-1.3 0-2.4.8-2.8 2l-25.8 75.8c-.8 2.7-4.5 2.7-5.6.1z" class="st1" style="fill: rgb(16, 185, 129);"/>
      <path id="m" d="M194.1 73.5c-8.6-11-20.8-16.6-36.6-16.6-8.9 0-17 2.5-24.3 7.5-7 4.7-12.7 11.4-17.2 19.9-1.8-4-3.9-7.6-6.3-10.8-8.5-11-20.5-16.6-36.1-16.6-8.9 0-16.5 2.4-22.9 7.1-5 3.7-9.3 8.7-12.9 14.8V61c0-1.7-1.3-3-3-3H3c-1.7 0-3 1.3-3 3v139c0 1.7 1.3 3 3 3h32c1.7 0 3-1.3 3-3v-84.4c.1-7.2 2-12.7 5.9-16.7 3.9-4 9.3-5.9 16.4-5.9 7.7 0 13.7 2.3 17.8 6.9 4.1 4.6 6.2 11.2 5.9 19.6V201c0 1.7 1.3 3 3 3h33c1.7 0 3-1.3 3-3v-81.9.1c0-8.1 2-14.4 5.9-18.8 4-4.4 9.5-6.6 16.9-6.6 7.5 0 13.1 2.3 17.2 6.9 4.1 4.6 6.1 11.2 6.1 19.6V201c0 1.7 1.3 3 3 3h32c1.7 0 3-1.3 3-3v-80.9c0-19.9-4.3-35.5-13-46.6z" class="st1" style="fill: rgb(16, 185, 129);"/>
    </g>
    <g id="g-1" transform="matrix(1, 0, 0, 1, 565.297852, 212.797363)"/>
    <g id="g-3" transform="matrix(1, 0, 0, 1, 565.297852, 212.797363)"/>
  </g>
  <g id="color-bar" transform="matrix(1, 0, 0, 1, 52.91368865966797, 31.10927963256836)"/>
</svg>